<svg width="48" height="48" viewBox="0 0 48 48" fill="none" xmlns="http://www.w3.org/2000/svg">
<path d="M0 15.9976V24.8839C3.02378 24.8818 6.0183 25.4784 8.81221 26.6398C11.6061 27.8011 14.1446 29.5043 16.2824 31.6519C18.4196 33.7987 20.1146 36.3475 21.2703 39.1526C22.4261 41.9576 23.0199 44.964 23.018 47.9997H31.8604C31.8524 39.5157 28.4933 31.3815 22.5202 25.3819C16.5472 19.3822 8.44802 16.0073 0 15.9976H0Z" fill="#F637EC"/>
<path d="M44.2203 0H30.207C37.2961 4.51154 43.3028 10.543 47.7963 17.6615V3.58863C47.7956 2.63664 47.4186 1.72386 46.748 1.05093C46.0775 0.378005 45.1683 -2.35566e-07 44.2203 0Z" fill="#F637EC"/>
<path d="M8.80468 0H0V8.00084C10.5603 8.01188 20.6849 12.2296 28.1523 19.7284C35.6197 27.2273 39.8198 37.3948 39.8311 48H47.7969V39.1579C45.9958 29.4398 41.3066 20.4973 34.3464 13.5076C27.3863 6.51787 18.4816 1.80868 8.80468 0Z" fill="#F637EC"/>

</svg>
