<?xml version="1.0" standalone="no"?>
<!DOCTYPE svg PUBLIC "-//W3C//DTD SVG 20010904//EN"
 "http://www.w3.org/TR/2001/REC-SVG-20010904/DTD/svg10.dtd">
<svg version="1.0" xmlns="http://www.w3.org/2000/svg"
 width="700.000000pt" height="700.000000pt" viewBox="0 0 700.000000 700.000000"
 preserveAspectRatio="xMidYMid meet">
<metadata>
Created by potrace 1.14, written by Peter Selinger 2001-2017
</metadata>
<g transform="translate(0.000000,700.000000) scale(0.100000,-0.100000)"
fill="#000000" stroke="none">
<path d="M0 6417 l0 -584 118 -2 c172 -3 237 -7 457 -27 33 -3 71 -7 85 -9 14
-2 48 -7 75 -10 28 -3 61 -7 75 -10 14 -2 43 -7 65 -10 54 -7 145 -23 230 -40
39 -8 81 -16 95 -19 265 -46 794 -215 1087 -347 23 -11 44 -19 47 -19 12 0
327 -155 431 -213 139 -77 284 -163 381 -227 41 -27 77 -50 80 -50 2 0 12 -7
21 -15 10 -8 66 -48 125 -89 90 -64 337 -255 374 -290 6 -6 45 -40 85 -76 225
-198 471 -452 656 -680 95 -116 343 -453 343 -465 0 -3 15 -26 34 -52 124
-177 315 -531 456 -848 118 -262 290 -781 335 -1005 2 -8 14 -69 28 -135 14
-66 29 -140 32 -165 4 -24 8 -47 10 -50 2 -3 6 -30 10 -60 3 -30 8 -62 10 -70
2 -8 7 -38 10 -66 3 -28 7 -59 9 -70 2 -10 7 -53 11 -94 3 -41 8 -86 10 -100
8 -52 22 -340 24 -477 l1 -43 580 0 580 0 0 646 0 646 -26 127 c-14 69 -27
133 -29 141 -2 8 -11 44 -19 80 -17 74 -33 134 -71 270 -14 52 -27 102 -29
110 -25 97 -198 585 -249 702 -8 18 -24 54 -36 80 -11 26 -21 50 -21 52 0 18
-233 489 -290 585 -16 29 -30 54 -30 56 0 11 -193 325 -282 460 -127 189 -322
450 -469 625 -109 131 -141 167 -259 293 -146 157 -399 399 -550 527 -35 30
-70 60 -76 66 -15 13 -71 59 -154 125 -477 380 -1078 735 -1627 965 -49 20
-102 42 -119 50 -182 80 -797 279 -959 310 -11 2 -90 21 -175 41 l-155 37
-672 3 -673 4 0 -584z"/>
<path d="M4581 6884 c181 -122 288 -200 479 -348 95 -73 270 -216 290 -236 3
-3 43 -39 90 -80 249 -219 585 -557 780 -786 259 -302 450 -553 649 -855 l101
-152 0 1059 c-1 1160 2 1104 -61 1233 -63 127 -210 239 -354 270 -33 7 -404
10 -1098 11 l-1049 0 173 -116z"/>
<path d="M0 4019 l0 -649 93 -1 c50 -1 103 -2 117 -4 14 -1 59 -5 100 -9 323
-29 720 -127 977 -242 17 -8 60 -27 95 -42 152 -67 273 -134 463 -258 327
-214 619 -490 849 -804 31 -41 59 -79 63 -85 4 -5 21 -30 36 -54 355 -544 546
-1149 561 -1776 l2 -90 646 -3 646 -2 -3 117 c-4 138 -19 340 -30 413 -2 19
-7 58 -11 85 -42 373 -179 865 -345 1244 -309 706 -783 1327 -1370 1792 -362
287 -810 549 -1169 681 -30 12 -59 24 -65 28 -14 10 -334 115 -430 140 -113
31 -319 78 -390 90 -77 13 -114 19 -145 25 -14 3 -47 7 -75 10 -27 3 -66 8
-85 10 -130 17 -252 26 -407 30 l-123 3 0 -649z"/>
</g>
</svg>
